<svg width="844" height="390" viewBox="0 0 844 390" fill="none" xmlns="http://www.w3.org/2000/svg">
  <!-- Controller body background (flat top, rounded bottom corners) -->
  <path d="M0 40 L844 40 L844 365 Q844 390 819 390 L25 390 Q0 390 0 365 Z" fill="#4A5591"/>

  <!-- Tab background (matching PSP pill) -->
  <rect x="357.5" y="-138.5" width="126" height="176" rx="14.5" fill="#D9D9D9" stroke="black"/>

  <!-- L shoulder button -->
  <svg x="0" y="40" width="358" height="35" viewBox="0 0 358 35" fill="none">
    <rect width="358" height="35" rx="10" fill="#BBC1C6"/>
    <g filter="url(#filter0_i_17_39)">
      <path d="M337.545 23V11.3636H338.608V22.0455H344.153V23H337.545Z" fill="#BBC1C6"/>
    </g>
    <defs>
      <filter id="filter0_i_17_39" x="337.545" y="11.3635" width="6.60803" height="15.6365" filterUnits="userSpaceOnUse" color-interpolation-filters="sRGB">
        <feFlood flood-opacity="0" result="BackgroundImageFix"/>
        <feBlend mode="normal" in="SourceGraphic" in2="BackgroundImageFix" result="shape"/>
        <feColorMatrix in="SourceAlpha" type="matrix" values="0 0 0 0 0 0 0 0 0 0 0 0 0 0 0 0 0 0 127 0" result="hardAlpha"/>
        <feOffset dy="4"/>
        <feGaussianBlur stdDeviation="2"/>
        <feComposite in2="hardAlpha" operator="arithmetic" k2="-1" k3="1"/>
        <feColorMatrix type="matrix" values="0 0 0 0 0 0 0 0 0 0 0 0 0 0 0 0 0 0 0.25 0"/>
        <feBlend mode="normal" in2="shape" result="effect1_innerShadow_17_39"/>
      </filter>
    </defs>
  </svg>

  <!-- R shoulder button -->
  <svg x="484" y="40" width="360" height="35" viewBox="0 0 360 35" fill="none">
    <rect width="360" height="35" rx="10" fill="#BBC1C6"/>
    <g filter="url(#filter0_i_17_38)">
      <path d="M11.5455 23V11.3636H15.3011C16.1269 11.3636 16.8163 11.5133 17.3693 11.8125C17.9261 12.108 18.3447 12.5189 18.625 13.0455C18.9091 13.5682 19.0511 14.1686 19.0511 14.8466C19.0511 15.5246 18.9091 16.1231 18.625 16.642C18.3447 17.161 17.928 17.5663 17.375 17.858C16.822 18.1496 16.1364 18.2955 15.3182 18.2955H12.1193V17.3239H15.2898C15.8958 17.3239 16.3996 17.2235 16.8011 17.0227C17.2064 16.822 17.5076 16.536 17.7045 16.1648C17.9053 15.7936 18.0057 15.3542 18.0057 14.8466C18.0057 14.339 17.9053 13.8958 17.7045 13.517C17.5038 13.1345 17.2008 12.839 16.7955 12.6307C16.3939 12.4223 15.8864 12.3182 15.2727 12.3182H12.608V23H11.5455ZM16.6761 17.75L19.5398 23H18.3125L15.4773 17.75H16.6761Z" fill="#BBC1C6"/>
    </g>
    <defs>
      <filter id="filter0_i_17_38" x="11.5454" y="11.3635" width="7.99438" height="15.6365" filterUnits="userSpaceOnUse" color-interpolation-filters="sRGB">
        <feFlood flood-opacity="0" result="BackgroundImageFix"/>
        <feBlend mode="normal" in="SourceGraphic" in2="BackgroundImageFix" result="shape"/>
        <feColorMatrix in="SourceAlpha" type="matrix" values="0 0 0 0 0 0 0 0 0 0 0 0 0 0 0 0 0 0 127 0" result="hardAlpha"/>
        <feOffset dy="4"/>
        <feGaussianBlur stdDeviation="2"/>
        <feComposite in2="hardAlpha" operator="arithmetic" k2="-1" k3="1"/>
        <feColorMatrix type="matrix" values="0 0 0 0 0 0 0 0 0 0 0 0 0 0 0 0 0 0 0.25 0"/>
        <feBlend mode="normal" in2="shape" result="effect1_innerShadow_17_38"/>
      </filter>
    </defs>
  </svg>

  <!-- D-pad -->
  <svg x="95" y="98" width="234" height="234" viewBox="0 0 234 234" fill="none">
    <rect x="16.101" y="93.3853" width="202.872" height="48.3028" fill="#A3A7AD"/>
    <rect x="93.3854" y="25.7615" width="48.3028" height="192.138" fill="#A3A7AD"/>
    <path d="M212.893 72.466H161.889C161.795 72.466 161.704 72.4286 161.638 72.362C161.571 72.2955 161.534 72.2052 161.534 72.1111V21.1074C161.527 15.5147 159.304 10.1527 155.351 6.19632C151.398 2.23992 146.038 0.0117348 140.446 0H93.5544C87.9584 0.00670779 82.5935 2.23267 78.6366 6.18962C74.6796 10.1466 72.4537 15.5114 72.447 21.1074V72.1111C72.447 72.2052 72.4096 72.2955 72.343 72.362C72.2765 72.4286 72.1862 72.466 72.0921 72.466H21.1074C15.5142 72.471 10.1512 74.6938 6.19448 78.647C2.23771 82.6002 0.0100635 87.9612 0 93.5544V140.446C0.00503357 146.042 2.23046 151.408 6.18777 155.365C10.1451 159.323 15.5109 161.548 21.1074 161.553H72.1111C72.2052 161.553 72.2955 161.59 72.362 161.657C72.4286 161.723 72.466 161.814 72.466 161.908V212.912C72.4777 218.501 74.7033 223.858 78.6556 227.81C82.6079 231.763 87.965 233.988 93.5544 234H140.446C146.042 233.993 151.406 231.767 155.363 227.81C159.32 223.853 161.546 218.489 161.553 212.893V161.889C161.553 161.795 161.59 161.704 161.657 161.638C161.723 161.571 161.814 161.534 161.908 161.534H212.912C218.501 161.524 223.86 159.299 227.812 155.346C231.765 151.394 233.99 146.036 234 140.446V93.5544C233.99 87.9612 231.762 82.6002 227.806 78.647C223.849 74.6938 218.486 72.471 212.893 72.466ZM47.677 126.175C47.6793 126.434 47.6116 126.688 47.4811 126.911C47.3505 127.134 47.162 127.318 46.9356 127.443C46.7201 127.562 46.4783 127.625 46.2322 127.627C45.9656 127.627 45.7043 127.552 45.4782 127.411L30.5173 118.236C30.3062 118.107 30.1317 117.927 30.0105 117.712C29.8894 117.496 29.8258 117.253 29.8258 117.006C29.8258 116.759 29.8894 116.516 30.0105 116.301C30.1317 116.086 30.3062 115.905 30.5173 115.777L45.4782 106.602C45.6969 106.468 45.9474 106.394 46.2038 106.389C46.4603 106.384 46.7134 106.448 46.9373 106.573C47.1611 106.698 47.3476 106.88 47.4776 107.102C47.6076 107.323 47.6764 107.574 47.677 107.831V126.175ZM127.012 187.597L117.836 202.545C117.707 202.755 117.526 202.928 117.311 203.048C117.096 203.167 116.853 203.23 116.607 203.229C116.361 203.229 116.119 203.167 115.904 203.047C115.688 202.927 115.507 202.754 115.378 202.545L106.228 187.597C106.094 187.378 106.021 187.127 106.016 186.871C106.011 186.615 106.074 186.361 106.199 186.138C106.324 185.914 106.507 185.727 106.728 185.597C106.949 185.467 107.201 185.398 107.457 185.398H125.833C126.089 185.4 126.339 185.47 126.559 185.601C126.779 185.731 126.961 185.918 127.086 186.141C127.21 186.364 127.274 186.616 127.27 186.872C127.266 187.127 127.194 187.378 127.063 187.597H127.012ZM127.012 47.8607C126.888 48.0877 126.704 48.2765 126.481 48.4071C126.258 48.5377 126.003 48.6051 125.745 48.6021H107.368C107.112 48.6016 106.86 48.5328 106.639 48.4028C106.418 48.2728 106.235 48.0863 106.11 47.8624C105.985 47.6385 105.922 47.3854 105.927 47.129C105.932 46.8725 106.005 46.6221 106.139 46.4033L115.378 31.4552C115.507 31.2455 115.688 31.0725 115.903 30.9524C116.118 30.8324 116.361 30.7694 116.607 30.7694C116.853 30.7694 117.096 30.8324 117.311 30.9524C117.526 31.0725 117.707 31.2455 117.836 31.4552L127.012 46.4223C127.143 46.6385 127.214 46.8855 127.218 47.1381C127.223 47.3908 127.16 47.6401 127.037 47.8607H127.012ZM203.489 118.229L188.522 127.405C188.296 127.546 188.034 127.621 187.768 127.62C187.522 127.619 187.28 127.555 187.064 127.436C186.838 127.312 186.649 127.128 186.519 126.905C186.388 126.682 186.321 126.428 186.323 126.169V107.793C186.324 107.536 186.392 107.285 186.522 107.064C186.652 106.842 186.839 106.66 187.063 106.535C187.287 106.41 187.54 106.346 187.796 106.351C188.053 106.356 188.303 106.43 188.522 106.564L203.489 115.739C203.699 115.868 203.872 116.049 203.992 116.264C204.112 116.48 204.175 116.722 204.175 116.968C204.175 117.215 204.112 117.457 203.992 117.672C203.872 117.887 203.699 118.068 203.489 118.198V118.229Z" fill="#BBC1C6"/>
    <circle cx="117.537" cy="117.537" r="19.8578" fill="#9B9FA5"/>
  </svg>

  <!-- B button -->
  <svg x="608" y="215" width="100" height="100" viewBox="0 0 100 100" fill="none">
    <circle cx="50" cy="50" r="50" fill="#BBC1C6"/>
    <path d="M38.6364 67V32.0909H50.4148C52.6875 32.0909 54.5795 32.4886 56.0909 33.2841C57.6136 34.0795 58.7557 35.1648 59.517 36.5398C60.2784 37.9148 60.6591 39.4773 60.6591 41.2273C60.6591 42.6818 60.4148 43.9261 59.9261 44.9602C59.4375 45.9943 58.7727 46.8295 57.9318 47.4659C57.0909 48.1023 56.1534 48.5625 55.1193 48.8466V49.1193C56.2443 49.1989 57.3352 49.5966 58.392 50.3125C59.4489 51.017 60.3182 52.0057 61 53.2784C61.6818 54.5511 62.0227 56.0739 62.0227 57.8466C62.0227 59.608 61.6307 61.1818 60.8466 62.5682C60.0625 63.9432 58.858 65.0284 57.233 65.8239C55.6193 66.608 53.5625 67 51.0625 67H38.6364ZM41.8239 64.1364H51.0625C53.7557 64.1364 55.7443 63.5398 57.0284 62.3466C58.3239 61.1534 58.9716 59.6534 58.9716 57.8466C58.9716 56.517 58.6477 55.3125 58 54.233C57.3636 53.142 56.4602 52.2784 55.2898 51.642C54.1307 51.0057 52.767 50.6875 51.1989 50.6875H41.8239V64.1364ZM41.8239 47.858H50.7045C52.0795 47.858 53.2841 47.5739 54.3182 47.0057C55.3523 46.4375 56.1591 45.6534 56.7386 44.6534C57.3182 43.6534 57.608 42.5114 57.608 41.2273C57.608 39.375 57.0057 37.8693 55.8011 36.7102C54.5966 35.5398 52.8011 34.9545 50.4148 34.9545H41.8239V47.858Z" fill="#8F9397"/>
  </svg>

  <!-- A button -->
  <svg x="710" y="125" width="100" height="100" viewBox="0 0 100 100" fill="none">
    <circle cx="50" cy="50" r="50" fill="#BBC1C6"/>
    <path d="M38.6875 67H35.3466L48.0455 32.0909H51.4545L64.1534 67H60.8125L49.8693 36.233H49.6307L38.6875 67ZM41.0909 53.6193H58.4091V56.483H41.0909V53.6193Z" fill="#A1A5AA"/>
  </svg>

  <!-- Start button -->
  <svg x="412" y="283" width="103" height="57" viewBox="0 0 103 57" fill="none">
    <g filter="url(#filter0_i_17_35)">
      <rect x="8.2085" width="100" height="24" rx="12" transform="rotate(20 8.2085 0)" fill="#4A5591"/>
    </g>
    <path d="M34.7424 18.584C34.9034 17.9533 34.8109 17.3714 34.4648 16.8383C34.1187 16.3052 33.5843 15.9071 32.8618 15.6441C32.3528 15.4589 31.8725 15.3828 31.4211 15.416C30.9732 15.4505 30.5825 15.5824 30.2491 15.8118C29.9206 16.0389 29.6851 16.3482 29.5425 16.7397C29.4376 17.028 29.4079 17.3034 29.4535 17.5659C29.499 17.8284 29.5983 18.0761 29.7513 18.3092C29.9092 18.54 30.0961 18.7572 30.3123 18.9608C30.5319 19.1657 30.7599 19.3535 30.9961 19.5241L32.0288 20.2749C32.3427 20.4979 32.6468 20.7477 32.9412 21.0242C33.2356 21.3006 33.4856 21.6052 33.691 21.938C33.9012 22.2685 34.034 22.6292 34.0892 23.0201C34.1493 23.4088 34.0964 23.8309 33.9306 24.2866C33.7181 24.8703 33.3757 25.3403 32.9034 25.6964C32.4312 26.0526 31.8622 26.2647 31.1965 26.3328C30.5321 26.3973 29.8048 26.2858 29.0146 25.9982C28.2707 25.7274 27.6693 25.3695 27.2105 24.9244C26.7531 24.4757 26.4474 23.9755 26.2935 23.4236C26.1396 22.8718 26.1481 22.3005 26.3188 21.7096L27.3439 22.0827C27.2227 22.5263 27.2323 22.943 27.3727 23.3327C27.513 23.7224 27.754 24.0681 28.0957 24.3698C28.4386 24.6679 28.8557 24.9064 29.3469 25.0852C29.8915 25.2834 30.4086 25.3688 30.8982 25.3415C31.3927 25.3118 31.8206 25.1773 32.1818 24.938C32.5479 24.6963 32.8106 24.3566 32.97 23.9188C33.1047 23.5486 33.1213 23.204 33.0198 22.8848C32.9196 22.5622 32.7279 22.2526 32.4448 21.9561C32.1653 21.6608 31.8235 21.3651 31.4194 21.0689L30.2512 20.2083C29.4867 19.6398 28.95 19.0434 28.6411 18.4191C28.3322 17.7947 28.3054 17.1319 28.5606 16.4307C28.7744 15.8434 29.1188 15.3843 29.594 15.0534C30.074 14.7202 30.6281 14.5268 31.2563 14.4733C31.8893 14.4175 32.5422 14.512 33.2149 14.7569C33.8948 15.0043 34.451 15.3478 34.8835 15.7874C35.3161 16.227 35.6057 16.7215 35.7525 17.2707C35.9041 17.8176 35.8896 18.3726 35.7088 18.9357L34.7424 18.584ZM41.2936 20.9684L40.9924 21.796L37.0788 20.3715L37.38 19.5439L41.2936 20.9684ZM39.3178 18.0241L40.2735 18.372L37.3527 26.3968C37.2283 26.7385 37.1892 27.0286 37.2355 27.2671C37.283 27.5021 37.3861 27.6948 37.545 27.8453C37.7051 27.9923 37.892 28.1047 38.1056 28.1824C38.2301 28.2277 38.3395 28.2595 38.4337 28.2776C38.5291 28.2922 38.6139 28.3029 38.688 28.3098L38.5781 29.2432C38.4726 29.2451 38.347 29.2357 38.2014 29.2149C38.0545 29.1977 37.8813 29.1529 37.682 29.0803C37.3332 28.9534 37.0247 28.7544 36.7565 28.4835C36.4918 28.2138 36.3113 27.8901 36.215 27.5124C36.1187 27.1347 36.1521 26.7216 36.3154 26.2732L39.3178 18.0241ZM42.6895 30.9755C42.1947 30.7954 41.7777 30.5347 41.4383 30.1935C41.1002 29.8488 40.8769 29.4491 40.7683 28.9943C40.661 28.5361 40.7032 28.0435 40.8949 27.5167C41.0426 27.1109 41.2435 26.7971 41.4976 26.5752C41.7517 26.3532 42.0518 26.2045 42.3977 26.1288C42.7437 26.0532 43.1277 26.0337 43.5497 26.0704C43.9717 26.1071 44.4244 26.1812 44.9078 26.2927C45.3877 26.4029 45.7939 26.4942 46.1262 26.5668C46.4621 26.6407 46.7305 26.6618 46.9315 26.6302C47.1325 26.5985 47.2705 26.4795 47.3457 26.273L47.4156 26.0808C47.619 25.522 47.6117 25.0215 47.3938 24.5794C47.1806 24.135 46.7626 23.7994 46.1397 23.5727C45.5488 23.3576 45.0192 23.312 44.5509 23.4358C44.0862 23.5609 43.7149 23.7725 43.4372 24.0704L42.6534 23.4163C43.0017 23.0352 43.3882 22.7708 43.8128 22.623C44.2388 22.4717 44.676 22.4111 45.1245 22.4413C45.5743 22.468 46.0075 22.5571 46.4239 22.7087C46.7372 22.8227 47.048 22.9822 47.3563 23.1871C47.6682 23.3934 47.9332 23.651 48.1512 23.9602C48.3705 24.2657 48.5055 24.6313 48.5562 25.0569C48.6082 25.4789 48.5344 25.964 48.3349 26.5121L46.3081 32.0809L45.3577 31.735L45.8299 30.4376L45.7712 30.4162C45.5692 30.6168 45.3146 30.7902 45.0074 30.9363C44.7003 31.0825 44.3511 31.167 43.9598 31.1899C43.5686 31.2128 43.1451 31.1413 42.6895 30.9755ZM43.1344 30.1518C43.6398 30.3358 44.1185 30.383 44.5703 30.2935C45.0221 30.204 45.415 30.0104 45.7491 29.7128C46.088 29.4129 46.3391 29.0387 46.5023 28.5902L46.9337 27.4049C46.8379 27.4466 46.6966 27.4637 46.5099 27.4562C46.3267 27.45 46.1188 27.4288 45.8862 27.3925C45.6583 27.3539 45.4325 27.31 45.2085 27.2607C44.9846 27.2115 44.7833 27.1664 44.6047 27.1256C44.1212 27.0141 43.6938 26.9593 43.3222 26.9611C42.9507 26.963 42.6389 27.0389 42.3867 27.189C42.1359 27.3355 41.9502 27.5743 41.8297 27.9053C41.6484 28.4037 41.6858 28.8546 41.942 29.2583C42.1994 29.6583 42.5969 29.9562 43.1344 30.1518ZM48.8362 33.001L51.8211 24.8001L52.7447 25.1363L52.2861 26.3963L52.3555 26.4216C52.6695 26.0683 53.0754 25.8391 53.5732 25.7341C54.0758 25.6268 54.5852 25.6671 55.1013 25.8549C55.1796 25.8834 55.2662 25.9169 55.361 25.9555C55.4558 25.994 55.5346 26.0267 55.5973 26.0536L55.2456 27.02C55.2055 26.9973 55.1346 26.9594 55.033 26.9063C54.9314 26.8532 54.8183 26.804 54.6937 26.7587C54.2666 26.6032 53.8527 26.5553 53.4521 26.6151C53.0563 26.6726 52.7046 26.8247 52.3971 27.0716C52.0896 27.3184 51.862 27.6447 51.7143 28.0505L49.7865 33.3469L48.8362 33.001ZM60.9243 28.1134L60.6231 28.941L56.7095 27.5165L57.0107 26.689L60.9243 28.1134ZM58.9485 25.1692L59.9042 25.517L56.9835 33.5418C56.8591 33.8835 56.82 34.1736 56.8662 34.4121C56.9137 34.6471 57.0169 34.8398 57.1758 34.9904C57.3359 35.1373 57.5228 35.2497 57.7363 35.3274C57.8609 35.3728 57.9703 35.4045 58.0644 35.4227C58.1599 35.4372 58.2447 35.4479 58.3188 35.4548L58.2088 36.3882C58.1033 36.3901 57.9778 36.3807 57.8321 36.3599C57.6852 36.3428 57.5121 36.2979 57.3128 36.2253C56.9639 36.0984 56.6554 35.8994 56.3872 35.6285C56.1226 35.3588 55.9421 35.0351 55.8458 34.6574C55.7494 34.2798 55.7829 33.8667 55.9461 33.4182L58.9485 25.1692Z" fill="#5C67A0"/>
    <circle cx="87" cy="41" r="12" fill="#BBC1C6"/>
    <defs>
      <filter id="filter0_i_17_35" x="3.37732" y="3.3772" width="95.4231" height="54.0002" filterUnits="userSpaceOnUse" color-interpolation-filters="sRGB">
        <feFlood flood-opacity="0" result="BackgroundImageFix"/>
        <feBlend mode="normal" in="SourceGraphic" in2="BackgroundImageFix" result="shape"/>
        <feColorMatrix in="SourceAlpha" type="matrix" values="0 0 0 0 0 0 0 0 0 0 0 0 0 0 0 0 0 0 127 0" result="hardAlpha"/>
        <feOffset dy="4"/>
        <feGaussianBlur stdDeviation="2"/>
        <feComposite in2="hardAlpha" operator="arithmetic" k2="-1" k3="1"/>
        <feColorMatrix type="matrix" values="0 0 0 0 0 0 0 0 0 0 0 0 0 0 0 0 0 0 0.25 0"/>
        <feBlend mode="normal" in2="shape" result="effect1_innerShadow_17_35"/>
      </filter>
    </defs>
  </svg>

  <!-- Select button -->
  <svg x="421" y="322" width="103" height="57" viewBox="0 0 103 57" fill="none">
    <g filter="url(#filter0_i_17_37)">
      <rect x="8.2085" width="100" height="24" rx="12" transform="rotate(20 8.2085 0)" fill="#4A5591"/>
    </g>
    <path d="M34.7424 18.584C34.9034 17.9533 34.8109 17.3714 34.4648 16.8383C34.1187 16.3052 33.5843 15.9071 32.8618 15.6441C32.3528 15.4589 31.8725 15.3828 31.4211 15.416C30.9732 15.4505 30.5825 15.5824 30.2491 15.8118C29.9206 16.0389 29.6851 16.3482 29.5425 16.7397C29.4376 17.028 29.4079 17.3034 29.4535 17.5659C29.499 17.8284 29.5983 18.0761 29.7513 18.3092C29.9092 18.54 30.0961 18.7572 30.3123 18.9608C30.5319 19.1657 30.7599 19.3535 30.9961 19.5241L32.0288 20.2749C32.3427 20.4979 32.6468 20.7477 32.9412 21.0242C33.2356 21.3006 33.4856 21.6052 33.691 21.938C33.9012 22.2685 34.034 22.6292 34.0892 23.0201C34.1493 23.4088 34.0964 23.8309 33.9306 24.2866C33.7181 24.8703 33.3757 25.3403 32.9034 25.6964C32.4312 26.0526 31.8622 26.2647 31.1965 26.3328C30.5321 26.3973 29.8048 26.2858 29.0146 25.9982C28.2707 25.7274 27.6693 25.3695 27.2105 24.9244C26.7531 24.4757 26.4474 23.9755 26.2935 23.4236C26.1396 22.8718 26.1481 22.3005 26.3188 21.7096L27.3439 22.0827C27.2227 22.5263 27.2323 22.943 27.3727 23.3327C27.513 23.7224 27.754 24.0681 28.0957 24.3698C28.4386 24.6679 28.8557 24.9064 29.3469 25.0852C29.8915 25.2834 30.4086 25.3688 30.8982 25.3415C31.3927 25.3118 31.8206 25.1773 32.1818 24.938C32.5479 24.6963 32.8106 24.3566 32.97 23.9188C33.1047 23.5486 33.1213 23.204 33.0198 22.8848C32.9196 22.5622 32.7279 22.2526 32.4448 21.9561C32.1653 21.6608 31.8235 21.3651 31.4194 21.0689L30.2512 20.2083C29.4867 19.6398 28.95 19.0434 28.6411 18.4191C28.3322 17.7947 28.3054 17.1319 28.5606 16.4307C28.7744 15.8434 29.1188 15.3843 29.594 15.0534C30.074 14.7202 30.6281 14.5268 31.2563 14.4733C31.8893 14.4175 32.5422 14.512 33.2149 14.7569C33.8948 15.0043 34.451 15.3478 34.8835 15.7874C35.3161 16.227 35.6057 16.7215 35.7525 17.2707C35.9041 17.8176 35.8896 18.3726 35.7088 18.9357L34.7424 18.584ZM38.3319 29.3713C37.5666 29.0927 36.9693 28.6738 36.5401 28.1145C36.1121 27.5516 35.8603 26.8976 35.7848 26.1526C35.7142 25.4054 35.8298 24.617 36.1316 23.7877C36.4322 22.9619 36.8504 22.2837 37.3861 21.7531C37.9267 21.2203 38.5318 20.8702 39.2014 20.7027C39.8759 20.533 40.5673 20.5771 41.2756 20.8349C41.7206 20.9968 42.1197 21.2348 42.473 21.5488C42.8276 21.8593 43.1077 22.2414 43.3134 22.6952C43.524 23.1467 43.6334 23.6601 43.6416 24.2355C43.6511 24.8074 43.5309 25.4368 43.2809 26.1238L43.1098 26.5936L36.7029 24.2616L37.0079 23.4234L42.4432 25.4017C42.635 24.8749 42.7005 24.3626 42.6398 23.8649C42.5839 23.3648 42.4121 22.9234 42.1242 22.5405C41.8398 22.1588 41.452 21.8786 40.9608 21.6998C40.4412 21.5107 39.9332 21.483 39.4371 21.6169C38.9409 21.7507 38.4978 22.0046 38.1078 22.3786C37.7212 22.7539 37.4277 23.2114 37.2273 23.7511L37.0446 24.253C36.8075 24.9044 36.7124 25.5147 36.7591 26.084C36.8107 26.651 36.9962 27.1437 37.3155 27.5623C37.6348 27.9808 38.0792 28.2937 38.6487 28.501C39.0366 28.6422 39.3986 28.7054 39.7345 28.6906C40.074 28.6771 40.3803 28.6052 40.6535 28.4749C40.9315 28.3423 41.1668 28.172 41.3595 27.9639L42.1549 28.586C41.9047 28.8859 41.584 29.13 41.193 29.3182C40.8056 29.5078 40.3677 29.6144 39.8794 29.6382C39.3959 29.6598 38.8801 29.5708 38.3319 29.3713ZM48.7449 20.5847L44.765 31.5193L43.8147 31.1734L47.7945 20.2388L48.7449 20.5847ZM50.5332 33.8122C49.7679 33.5337 49.1707 33.1147 48.7414 32.5554C48.3134 31.9925 48.0617 31.3385 47.9862 30.5935C47.9155 29.8463 48.0311 29.058 48.333 28.2286C48.6335 27.4028 49.0517 26.7246 49.5874 26.1941C50.128 25.6612 50.7331 25.3111 51.4028 25.1436C52.0772 24.9739 52.7686 25.018 53.477 25.2758C53.9219 25.4377 54.321 25.6757 54.6743 25.9897C55.0289 26.3002 55.3091 26.6823 55.5147 27.1361C55.7253 27.5876 55.8347 28.1011 55.8429 28.6765C55.8525 29.2483 55.7322 29.8777 55.4822 30.5647L55.3112 31.0345L48.9042 28.7026L49.2093 27.8643L54.6445 29.8426C54.8363 29.3158 54.9018 28.8035 54.8411 28.3058C54.7853 27.8058 54.6134 27.3643 54.3255 26.9814C54.0411 26.5997 53.6534 26.3195 53.1622 26.1407C52.6425 25.9516 52.1346 25.9239 51.6384 26.0578C51.1423 26.1916 50.6992 26.4455 50.3091 26.8195C49.9226 27.1948 49.6291 27.6523 49.4286 28.192L49.2459 28.6939C49.0088 29.3453 48.9137 29.9556 48.9604 30.5249C49.012 31.0919 49.1975 31.5847 49.5168 32.0032C49.8361 32.4217 50.2805 32.7346 50.85 32.9419C51.238 33.0831 51.5999 33.1463 51.9358 33.1316C52.2753 33.1181 52.5816 33.0461 52.8548 32.9158C53.1328 32.7832 53.3682 32.6129 53.5608 32.4049L54.3562 33.0269C54.106 33.3269 53.7854 33.5709 53.3944 33.7592C53.0069 33.9487 52.5691 34.0554 52.0807 34.0792C51.5972 34.1007 51.0814 34.0117 50.5332 33.8122ZM59.1573 36.9511C58.4241 36.6842 57.8519 36.2684 57.4407 35.7035C57.0331 35.14 56.7958 34.4852 56.7287 33.7393C56.6616 32.9933 56.7764 32.2128 57.0731 31.3977C57.3723 30.5754 57.7898 29.899 58.3256 29.3684C58.8649 28.8392 59.4711 28.4914 60.1443 28.3253C60.8188 28.1556 61.5137 28.2009 62.2292 28.4613C62.7773 28.6609 63.235 28.9484 63.6022 29.3239C63.9707 29.6958 64.2292 30.1265 64.3776 30.6158C64.5308 31.1029 64.5522 31.6146 64.4417 32.1508L63.4806 31.801C63.5494 31.302 63.4529 30.8194 63.1912 30.3534C62.9344 29.885 62.5141 29.5446 61.9304 29.3321C61.4072 29.1417 60.8926 29.1156 60.3867 29.254C59.8822 29.3888 59.424 29.6675 59.0122 30.09C58.6053 30.5103 58.2814 31.0514 58.0404 31.7135C57.7982 32.3791 57.6941 33.0083 57.7282 33.6012C57.7636 34.1905 57.9282 34.7019 58.2219 35.1353C58.5192 35.57 58.9366 35.8852 59.4741 36.0808C59.8371 36.213 60.1928 36.2658 60.541 36.2394C60.8941 36.2107 61.218 36.1069 61.5129 35.928C61.8114 35.7505 62.0596 35.5002 62.2578 35.1773L63.2188 35.5271C62.9676 35.9959 62.6307 36.3732 62.2083 36.6588C61.7908 36.9422 61.3194 37.1132 60.7941 37.172C60.2724 37.232 59.7268 37.1584 59.1573 36.9511ZM70.6002 31.6351L70.299 32.4627L66.3854 31.0383L66.6866 30.2107L70.6002 31.6351ZM68.6244 28.6909L69.5801 29.0388L66.6594 37.0635C66.535 37.4052 66.4959 37.6953 66.5421 37.9339C66.5896 38.1688 66.6928 38.3616 66.8517 38.5121C67.0118 38.6591 67.1987 38.7714 67.4122 38.8491C67.5368 38.8945 67.6462 38.9262 67.7403 38.9444C67.8358 38.959 67.9206 38.9697 67.9947 38.9765L67.8847 39.91C67.7792 39.9119 67.6537 39.9024 67.508 39.8817C67.3611 39.8645 67.188 39.8196 66.9887 39.7471C66.6398 39.6201 66.3313 39.4212 66.0631 39.1502C65.7985 38.8806 65.618 38.5569 65.5217 38.1792C65.4253 37.8015 65.4588 37.3884 65.622 36.9399L68.6244 28.6909Z" fill="#5C67A0"/>
    <circle cx="87" cy="41" r="12" fill="#BBC1C6"/>
    <defs>
      <filter id="filter0_i_17_37" x="3.37732" y="3.3772" width="95.4231" height="54.0002" filterUnits="userSpaceOnUse" color-interpolation-filters="sRGB">
        <feFlood flood-opacity="0" result="BackgroundImageFix"/>
        <feBlend mode="normal" in="SourceGraphic" in2="BackgroundImageFix" result="shape"/>
        <feColorMatrix in="SourceAlpha" type="matrix" values="0 0 0 0 0 0 0 0 0 0 0 0 0 0 0 0 0 0 127 0" result="hardAlpha"/>
        <feOffset dy="4"/>
        <feGaussianBlur stdDeviation="2"/>
        <feComposite in2="hardAlpha" operator="arithmetic" k2="-1" k3="1"/>
        <feColorMatrix type="matrix" values="0 0 0 0 0 0 0 0 0 0 0 0 0 0 0 0 0 0 0.25 0"/>
        <feBlend mode="normal" in2="shape" result="effect1_innerShadow_17_37"/>
      </filter>
    </defs>
  </svg>
</svg>
